<svg id="Layer_1" height="512" viewBox="0 0 512 512" width="512" xmlns="http://www.w3.org/2000/svg" data-name="Layer 1"><path d="m146.04 257.06a141.034 141.034 0 0 1 126.02-140.225 141.022 141.022 0 1 0 -15 281.245 142.371 142.371 0 0 0 15-.795 141.035 141.035 0 0 1 -126.02-140.225z" fill="#d4e1f4"/><g fill="#1ae5be"><path d="m285.379 56.362c17.717-3.552 31.3-10.954 31.3-21.964 0-16.018-28.751-24.4-57.152-24.4s-57.151 8.38-57.151 24.4c0 10.508 12.374 17.729 28.905 21.454a125.235 125.235 0 0 1 5.258 32.619 110.269 110.269 0 0 1 -4.616 33.17l11.5 3.437a122.3 122.3 0 0 0 5.117-36.778 134.2 134.2 0 0 0 -4.233-30.323 141.42 141.42 0 0 0 15.222.817c4.289 0 8.584-.194 12.788-.574a118.8 118.8 0 0 0 -4.658 30.08 125.144 125.144 0 0 0 5.056 37.2l11.5-3.437a114.53 114.53 0 0 1 -4.555-33.592c.134-9.643 2.071-20.438 5.719-32.109zm-71-21.964c0-3.6 15.822-12.4 45.151-12.4s45.152 8.8 45.152 12.4-15.823 12.4-45.152 12.4-45.152-8.798-45.152-12.398z"/><path d="m259.529 502c28.4 0 57.152-8.38 57.152-24.4 0-10.536-12.442-17.767-29.04-21.483a125.3 125.3 0 0 1 -5.123-32.59c-.2-14.112.388-18.176 2.658-25.772l-11.5-3.437c-2.6 8.707-3.378 13.895-3.16 29.378a135.475 135.475 0 0 0 4.12 30.311 141.716 141.716 0 0 0 -15.11-.805c-4.3 0-8.61.195-12.826.577a118.565 118.565 0 0 0 4.7-30.083c.212-15.082-.879-19.363-3.589-28.431l-11.5 3.437c2.322 7.768 3.283 10.983 3.088 24.825-.137 9.711-2.04 20.258-5.763 32.118-17.7 3.555-31.26 10.954-31.26 21.955.002 16.02 28.753 24.4 57.153 24.4zm0-36.8c29.329 0 45.152 8.8 45.152 12.4s-15.823 12.4-45.152 12.4-45.151-8.8-45.151-12.4 15.822-12.4 45.151-12.4z"/><path d="m399.328 110.16c8.841 4.056 17.377 6.517 24.385 6.517 5.972 0 10.837-1.779 13.837-5.855 1.551-2.109 3.221-5.78 2.365-11.3-1.83-11.8-15.186-28.282-34.027-41.984-22.913-16.664-51.076-26.781-60.572-13.878-1.551 2.108-3.221 5.779-2.365 11.3 1.027 6.626 5.688 14.725 12.911 22.98a125.605 125.605 0 0 1 -15.086 29.416 117.64 117.64 0 0 1 -24.611 24.744l7.239 9.57a129.729 129.729 0 0 0 27.136-27.343 132.518 132.518 0 0 0 14.587-27.009 141.433 141.433 0 0 0 11.851 9.621c3.46 2.517 7.042 4.871 10.658 7.032a119.251 119.251 0 0 0 -21.644 21.51c-7.11 9.384-12.885 20.4-17.655 33.694l11.3 4.054c2.776-7.736 7.448-19.314 15.924-30.5 5.865-7.744 13.666-15.15 23.767-22.569zm-44.519-57.04a3.636 3.636 0 0 1 .172-2.346c.5-.681 1.867-1.085 3.968-1.085 6.9 0 21.728 4.353 39.882 17.556 17.711 12.88 28.108 26.913 29.226 34.118a3.636 3.636 0 0 1 -.172 2.346c-2.145 2.918-20.167.752-43.849-16.471-17.712-12.88-28.109-26.913-29.227-34.118z"/><path d="m195.176 386.1-7.238-9.571c-7.5 5.672-10.568 8.753-19.419 21.142a136.6 136.6 0 0 0 -14.719 26.887 141.406 141.406 0 0 0 -11.719-9.5c-3.451-2.51-7.022-4.867-10.63-7.024a119.466 119.466 0 0 0 21.616-21.518c9.033-11.922 11.183-15.583 14.377-24.483l-11.294-4.054c-2.622 7.3-3.9 9.742-12.647 21.29-5.9 7.785-13.688 15.193-23.735 22.577-16.394-7.528-31.734-9.533-38.259-.667-1.551 2.109-3.221 5.78-2.365 11.3 1.83 11.8 15.186 28.282 34.026 41.984 15.675 11.4 33.8 19.734 46.735 19.734 5.972 0 10.838-1.779 13.838-5.856 1.551-2.108 3.22-5.779 2.365-11.3-1.035-6.673-5.756-14.841-13.067-23.157a127.979 127.979 0 0 1 15.242-29.239c8.14-11.395 10.469-13.688 16.893-18.545zm-31.1 75.128c-2.145 2.917-20.166.753-43.848-16.471-17.712-12.88-28.11-26.913-29.227-34.118a3.636 3.636 0 0 1 .172-2.346c2.146-2.916 20.167-.752 43.849 16.471 17.712 12.88 28.109 26.913 29.226 34.118a3.63 3.63 0 0 1 -.171 2.344z"/><path d="m455.391 134.437c-2.509.788-6.044 2.771-8.635 7.753-3.112 5.983-4.162 15.312-3.227 26.273a129.3 129.3 0 0 1 -29.729 14.637c-12.689 4.175-25.187 4.893-34.657 5.052l.2 12c10.318-.173 23.985-.971 38.208-5.652a137.721 137.721 0 0 0 27.873-13.03 140.083 140.083 0 0 0 3.785 14.542c1.284 4.047 2.755 8.041 4.375 11.9a118.059 118.059 0 0 0 -63.975 20.554l6.7 9.959a111.927 111.927 0 0 1 30.452-14.369c9.345-2.789 20.293-4.205 32.563-4.264 7.657 13.8 17.19 23.694 26.528 23.694a13.033 13.033 0 0 0 3.919-.6c2.509-.787 6.043-2.771 8.635-7.752 5.518-10.607 4.553-31.732-2.458-53.819-8.548-26.941-25.226-51.682-40.557-46.878zm32.369 95.149a3.73 3.73 0 0 1 -1.581 1.841c-3.461 1.095-16.7-11.249-25.528-39.049-6.587-20.752-6.621-38.17-3.249-44.65a3.725 3.725 0 0 1 1.581-1.841 1.554 1.554 0 0 1 .467-.066c4.061 0 16.593 12.439 25.06 39.115 6.59 20.751 6.622 38.169 3.25 44.65z"/><path d="m52.69 377.163a13.038 13.038 0 0 0 3.919-.6c2.509-.788 6.043-2.771 8.635-7.752 3.107-5.972 4.158-15.277 3.233-26.211a127.119 127.119 0 0 1 29.723-14.7 106.4 106.4 0 0 1 32.456-5.5l-.2-12a119.917 119.917 0 0 0 -36.007 6.1 137.015 137.015 0 0 0 -27.863 13.08 140.2 140.2 0 0 0 -3.8-14.592c-1.29-4.066-2.769-8.079-4.4-11.951a120.375 120.375 0 0 0 30.282-4.591 126.2 126.2 0 0 0 34.218-16.382l-6.694-9.959a114.257 114.257 0 0 1 -30.956 14.842c-9.344 2.79-20.05 4.157-32.6 4.194-8.728-15.7-19.885-26.323-30.409-23.02-2.509.787-6.043 2.771-8.635 7.752-5.518 10.607-4.553 31.732 2.458 53.819 7.827 24.653 22.46 47.471 36.64 47.471zm-28.45-95.751a3.725 3.725 0 0 1 1.581-1.841 1.554 1.554 0 0 1 .467-.066c4.061 0 16.593 12.439 25.061 39.115 6.587 20.752 6.621 38.17 3.249 44.65a3.73 3.73 0 0 1 -1.581 1.841c-3.465 1.091-16.7-11.249-25.527-39.049-6.59-20.751-6.622-38.169-3.25-44.65z"/><path d="m439.025 342.926a119.679 119.679 0 0 0 -26.211-15.841c-12.776-5.45-22.183-8.1-32.47-9.153l-1.22 11.937c7.6.778 15.444 2.479 28.982 8.254 8.918 3.8 18 9.57 27.662 17.567-2.295 11.757-2.2 21.988.557 28.624 2.155 5.182 5.506 7.459 7.938 8.457a13.058 13.058 0 0 0 5 .981c13.866 0 29.79-20.975 39.439-44.224 8.888-21.414 11.665-42.383 7.075-53.42-2.154-5.182-5.506-7.459-7.938-8.456-9.754-4-21.18 4.636-30.944 18.424a127.022 127.022 0 0 1 -32.363-7.652 102.869 102.869 0 0 1 -27.9-15.926l-7.52 9.352a115.674 115.674 0 0 0 31.026 17.739 136.49 136.49 0 0 0 29.792 7.7 139.884 139.884 0 0 0 -6.521 13.6c-1.688 4.053-3.149 8.085-4.384 12.037zm43.612-44.285a1.7 1.7 0 0 1 .645.113 3.718 3.718 0 0 1 1.412 1.961c2.8 6.742 1.272 24.093-7.079 44.214-11.184 26.95-25.432 38.126-28.8 36.739a3.712 3.712 0 0 1 -1.411-1.961c-2.8-6.741-1.272-24.093 7.078-44.213 10.578-25.482 23.895-36.853 28.155-36.853z"/><path d="m24.164 228.356a13.05 13.05 0 0 0 5 .982c8.554 0 17.889-7.986 26.052-19.56a129.731 129.731 0 0 1 32.259 7.806c13.338 5.255 24.146 13.947 29.953 18.616l7.52-9.351c-5.855-4.708-18.038-14.5-33.074-20.43a138.747 138.747 0 0 0 -29.719-7.838 139.854 139.854 0 0 0 6.445-13.467c1.676-4.036 3.133-8.057 4.366-12a119.9 119.9 0 0 0 26.22 15.807 124.116 124.116 0 0 0 36.12 9.317l1.22-11.937a112.178 112.178 0 0 1 -32.631-8.418c-8.98-3.83-18.06-9.583-27.67-17.528 2.3-11.773 2.214-22.019-.549-28.663-2.155-5.182-5.506-7.459-7.938-8.456-14.862-6.094-33.6 17.14-44.436 43.242-8.888 21.415-11.665 42.383-7.075 53.42 2.153 5.184 5.505 7.461 7.937 8.458zm10.221-57.276c10.575-25.48 23.892-36.853 28.153-36.853a1.7 1.7 0 0 1 .645.113 3.712 3.712 0 0 1 1.411 1.961c2.8 6.741 1.272 24.093-7.078 44.214-11.185 26.95-25.435 38.125-28.8 36.739a3.718 3.718 0 0 1 -1.412-1.961c-2.804-6.741-1.27-24.093 7.081-44.213z"/><path d="m337.059 471.445c3.029 4.467 8.275 6.4 14.8 6.4 12.846 0 30.652-7.5 46.26-17.963 19.356-12.976 33.336-28.937 35.617-40.662 1.066-5.479-.461-9.21-1.93-11.375-5.911-8.715-20.268-7.793-36.1-1.656a126.264 126.264 0 0 1 -22.629-24.189c-8.255-11.809-11.076-18.023-13.395-25.359l-11.442 3.619c2.615 8.275 5.908 15.61 15 28.618a136.078 136.078 0 0 0 20.466 22.81 141.221 141.221 0 0 0 -12.96 7.72c-3.658 2.452-7.122 5.011-10.353 7.628a118.588 118.588 0 0 0 -13.023-27.6c-8.335-12.668-12.724-17.2-20-23.16l-7.6 9.287c6.053 4.954 9.761 8.588 17.578 20.469 5.315 8.077 9.666 17.862 13.262 29.815-8.481 8.559-14.105 17.158-15.478 24.22-1.068 5.482.459 9.213 1.927 11.378zm9.85-9.084c1.392-7.157 12.323-20.786 30.52-32.985 24.329-16.31 42.421-17.787 44.45-14.793a3.629 3.629 0 0 1 .082 2.348c-1.392 7.157-12.323 20.786-30.521 32.986-24.328 16.309-42.419 17.786-44.45 14.792a3.637 3.637 0 0 1 -.081-2.348z"/><path d="m204.7 129.232a113.168 113.168 0 0 1 -22.99-25.272c-5.326-8.095-9.793-18.1-13.321-29.755 8.515-8.578 14.161-17.2 15.538-24.279 1.066-5.479-.461-9.21-1.929-11.376-8.992-13.256-37.525-4.218-61.063 11.562-19.354 12.975-33.335 28.936-35.616 40.661-1.066 5.479.461 9.21 1.93 11.376 3.029 4.466 8.275 6.4 14.8 6.4 6.194 0 13.545-1.756 21.242-4.735a126.263 126.263 0 0 1 22.688 24.177 107.368 107.368 0 0 1 14.671 29.543l11.442-3.616a119.179 119.179 0 0 0 -16.278-32.8 135.617 135.617 0 0 0 -20.5-22.794 140.971 140.971 0 0 0 13-7.736c3.639-2.439 7.087-4.984 10.3-7.587a121.167 121.167 0 0 0 13.072 27.556 125.084 125.084 0 0 0 25.414 27.962zm-63.07-48.612c-24.33 16.31-42.419 17.788-44.45 14.793a3.631 3.631 0 0 1 -.082-2.349c1.392-7.157 12.323-20.786 30.52-32.984 18.058-12.106 32.678-16.04 39.846-16.04 2.489 0 4.081.475 4.6 1.247a3.628 3.628 0 0 1 .082 2.348c-1.388 7.157-12.319 20.786-30.516 32.985z"/></g><path d="m256 375.92a120.392 120.392 0 0 0 29.563-3.673 6 6 0 0 0 -2.949-11.632 108.376 108.376 0 0 1 -26.614 3.305 6 6 0 0 0 0 12z" fill="#0635c9"/><path d="m216.746 347.78a30.317 30.317 0 1 0 -30.47-30.317 30.428 30.428 0 0 0 30.47 30.317zm0-48.634a18.318 18.318 0 1 1 -18.47 18.317 18.415 18.415 0 0 1 18.47-18.317z" fill="#0635c9"/><path d="m312.355 309.468a30.317 30.317 0 1 0 -30.47-30.317 30.428 30.428 0 0 0 30.47 30.317zm0-48.633a18.317 18.317 0 1 1 -18.47 18.316 18.415 18.415 0 0 1 18.47-18.316z" fill="#0635c9"/><path d="m257.1 403.8c79.761 0 144.651-64.527 144.651-143.841s-64.887-143.839-144.651-143.839-144.649 64.526-144.649 143.84 64.891 143.84 144.649 143.84zm0-275.681c73.144 0 132.651 59.143 132.651 131.84s-59.504 131.841-132.651 131.841-132.649-59.142-132.649-131.84 59.507-131.84 132.649-131.84z" fill="#0635c9"/><path d="m224.95 223.389a21.945 21.945 0 1 0 -22.045-21.945 22.02 22.02 0 0 0 22.045 21.945zm0-31.889a9.945 9.945 0 1 1 -10.045 9.944 10.006 10.006 0 0 1 10.045-9.944z" fill="#0635c9"/><path d="m315.5 198.391a16 16 0 1 0 -16-16 16.018 16.018 0 0 0 16 16zm0-20a4 4 0 1 1 -4 4 4 4 0 0 1 4-4z" fill="#0635c9"/><path d="m149.25 237.835a16.25 16.25 0 1 0 16.25 16.25 16.269 16.269 0 0 0 -16.25-16.25zm0 20.5a4.25 4.25 0 1 1 4.25-4.25 4.255 4.255 0 0 1 -4.25 4.25z" fill="#0635c9"/><path d="m307.385 350.926a6 6 0 1 0 5.723 10.548 119.916 119.916 0 0 0 62.812-105.474 6 6 0 0 0 -12 0 107.926 107.926 0 0 1 -56.535 94.926z" fill="#0635c9"/><path d="m259.53 28.333c-9.314 0-16.865 2.717-16.865 6.067 0 2.341 3.693 4.375 9.1 5.387a42.95 42.95 0 0 0 7.768.68 43.117 43.117 0 0 0 6.993-.548c5.823-.953 9.872-3.066 9.872-5.519.002-3.35-7.554-6.067-16.868-6.067z" fill="#1ae5be"/><path d="m394.937 72.481c-7.312-5.317-14.81-7.495-16.743-4.865-1.354 1.837.365 5.532 4.018 9.406a40.979 40.979 0 0 0 5.718 4.983 41.733 41.733 0 0 0 5.824 3.573c5.115 2.569 9.5 3.22 10.919 1.3 1.934-2.638-2.424-9.078-9.736-14.397z" fill="#1ae5be"/><path d="m478.6 186.766c-2.9-9.136-7.949-15.7-11.272-14.657-2.334.734-3.2 5.012-2.5 10.655a43.071 43.071 0 0 0 1.733 7.779 44.12 44.12 0 0 0 2.716 6.688c2.764 5.421 6.124 8.734 8.557 7.97 3.325-1.044 3.666-9.301.766-18.435z" fill="#1ae5be"/><path d="m471.755 326.463c-1.936-.792-4.866 1.539-7.533 5.615a37.421 37.421 0 0 0 -3.176 6.079 37.8 37.8 0 0 0 -1.921 5.91c-1.175 5.059-.8 9.059 1.22 9.89 2.763 1.131 7.556-4.1 10.708-11.694s3.465-14.663.702-15.8z" fill="#1ae5be"/><path d="m387.856 430.769a42.985 42.985 0 0 0 -6.875 3.785 43.808 43.808 0 0 0 -5.581 4.409c-4.329 4.072-6.515 8.114-5.123 10.17 1.909 2.811 9.793.841 17.609-4.4s12.61-11.769 10.7-14.579c-1.334-1.968-5.603-1.591-10.73.615z" fill="#1ae5be"/><path d="m266.621 472.651a39.277 39.277 0 0 0 -7.091-.618 39.718 39.718 0 0 0 -6.432.5c-5.337.877-9.043 2.816-9.043 5.064 0 3.074 6.928 5.567 15.475 5.567s15.475-2.493 15.475-5.567c0-2.151-3.405-4.021-8.384-4.946z" fill="#1ae5be"/><path d="m130.789 430.456a37.793 37.793 0 0 0 -5.254-3.224c-4.623-2.323-8.588-2.911-9.868-1.173-1.747 2.378 2.189 8.2 8.793 13s13.376 6.769 15.123 4.394c1.225-1.665-.348-5.028-3.676-8.544a37.277 37.277 0 0 0 -5.118-4.453z" fill="#1ae5be"/><path d="m44.715 320.68a38.624 38.624 0 0 0 -2.4-5.9c-2.428-4.753-5.377-7.658-7.514-6.986-2.925.915-3.228 8.174-.678 16.213s6.992 13.806 9.914 12.891c2.05-.642 2.812-4.4 2.206-9.353a38.127 38.127 0 0 0 -1.528-6.865z" fill="#1ae5be"/><path d="m52.074 161.041c-2.966-1.218-8.112 4.4-11.5 12.555s-3.721 15.744-.754 16.962c2.085.854 5.243-1.664 8.113-6.065a42.144 42.144 0 0 0 5.443-12.825c1.27-5.438.868-9.739-1.302-10.627z" fill="#1ae5be"/><path d="m130.956 64.944c-8.3 5.565-13.392 12.5-11.368 15.483 1.418 2.092 5.948 1.695 11.382-.641a48.073 48.073 0 0 0 13.215-8.686c4.618-4.335 6.954-8.639 5.469-10.826-2.024-2.99-10.397-.898-18.698 4.67z" fill="#1ae5be"/></svg>